<?xml version="1.0" encoding="UTF-8"?>
	<svg
  version="1.1"
  xmlns="http://www.w3.org/2000/svg"
  viewBox="80 0 414 318"
>



		<!-- Stylized QR (Logo-Element, nicht zwingend scanbar) -->
<g transform="translate(400,20) scale(1.05)">
  <!-- Rahmen -->
  <rect x="0" y="0" width="65" height="65" rx="10"
        fill="none" stroke="#ffffff" stroke-width="6"/>

  <!-- Finder: oben links -->
  <g transform="translate(8,8)">
    <rect x="0" y="0" width="18" height="18" rx="5"
          fill="none" stroke="#ffffff" stroke-width="6"/>
    <rect x="6" y="6" width="6" height="6" rx="2"
          fill="#ffffff"/>
  </g>

  <!-- Finder: oben rechts -->
  <g transform="translate(39,8)">
    <rect x="0" y="0" width="18" height="18" rx="5"
          fill="none" stroke="#ffffff" stroke-width="6"/>
    <rect x="6" y="6" width="6" height="6" rx="2"
          fill="#ffffff"/>
  </g>

  <!-- Finder: unten links -->
  <g transform="translate(8,39)">
    <rect x="0" y="0" width="18" height="18" rx="5"
          fill="none" stroke="#ffffff" stroke-width="6"/>
    <rect x="6" y="6" width="6" height="6" rx="2"
          fill="#ffffff"/>
  </g>

  <!-- Module / "QR-Muster" innen (runde Kacheln + Punkte) -->
  <!-- Grid-Zelle ~5px, bewusst organisch -->
  <g fill="#ffffff">
    <!-- Mitte -->
    <rect x="30" y="30" width="5" height="5" rx="2"/>
    <rect x="36" y="30" width="5" height="11" rx="2"/>
    <rect x="30" y="36" width="11" height="5" rx="2"/>

    <!-- rechts mittig -->
    <rect x="49" y="30" width="5" height="5" rx="2"/>
    <rect x="55" y="36" width="5" height="5" rx="2"/>
    <rect x="49" y="42" width="11" height="5" rx="2"/>

    <!-- unten mittig -->
    <rect x="30" y="49" width="5" height="11" rx="2"/>
    <rect x="36" y="55" width="5" height="5" rx="2"/>
    <rect x="42" y="49" width="5" height="5" rx="2"/>

    <!-- kleine Punkte -->
    <circle cx="34" cy="26" r="2.2"/>
    <circle cx="44" cy="26" r="2.2"/>
    <circle cx="26" cy="34" r="2.2"/>
    <circle cx="26" cy="44" r="2.2"/>
    <circle cx="44" cy="44" r="2.2"/>
    <circle cx="58" cy="26" r="2.2"/>
    <circle cx="58" cy="52" r="2.2"/>
  </g>

  <!-- Timing-Linie (dezent, QR-Feeling) -->
  <g fill="#ffffff" opacity="0.9">
    <rect x="28" y="23" width="3" height="3" rx="1.2"/>
    <rect x="33" y="23" width="3" height="3" rx="1.2"/>
    <rect x="38" y="23" width="3" height="3" rx="1.2"/>
    <rect x="43" y="23" width="3" height="3" rx="1.2"/>
  </g>
</g>



<path d="M0 0 C0.7734375 -0.020625 1.546875 -0.04125 2.34375 -0.0625 C7.95540836 -0.10016214 12.19592536 0.73429469 17.25 3.25 C17.96777344 5.35839844 17.96777344 5.35839844 18.25 7.25 C18.94585205 7.10925049 19.6417041 6.96850098 20.35864258 6.82348633 C28.59583804 5.28886144 36.56969206 4.90120641 44.9375 4.9375 C46.25733887 4.94168945 47.57717773 4.94587891 48.93701172 4.95019531 C63.85421662 5.12252139 80.03318317 6.61691702 93.25 14.25 C94.53311978 16.81623957 94.37298145 18.6275473 94.37025452 21.5017395 C94.37231651 23.171866 94.37231651 23.171866 94.37442017 24.87573242 C94.37082489 26.10283936 94.36722961 27.32994629 94.36352539 28.59423828 C94.36367142 29.88200165 94.36381744 31.16976501 94.3639679 32.49655151 C94.36425549 36.03352423 94.35836483 39.57046322 94.35139394 43.10742807 C94.34515415 46.80166867 94.3445561 50.49590998 94.34336853 54.19015503 C94.34025706 61.18829104 94.33204615 68.18641148 94.32201904 75.18454063 C94.31085219 83.15057598 94.30534601 91.11661206 94.30032361 99.08265328 C94.28986339 115.47177798 94.27226751 131.860887 94.25 148.25 C94.6581897 147.83958969 95.06637939 147.42917938 95.48693848 147.0063324 C99.76716348 142.70384398 104.05101542 138.40499082 108.33691406 134.1081543 C109.93223301 132.50783182 111.52665014 130.9066098 113.12011719 129.30444336 C115.42141331 126.9909063 117.72602071 124.68071101 120.03125 122.37109375 C121.08487732 121.3097245 121.08487732 121.3097245 122.15979004 120.22691345 C138.11584155 104.26908989 138.11584155 104.26908989 145.25 103.75 C148.50922717 103.89786664 149.3338984 104.30712232 152.1875 106.25 C157.04912289 113.32145147 154.92040066 122.01856479 153.8515625 130.04296875 C153.69714691 131.26599197 153.54273132 132.4890152 153.38363647 133.74909973 C152.89002731 137.64648232 152.38318294 141.54199332 151.875 145.4375 C151.37627718 149.31540821 150.88041988 153.19365539 150.38778687 157.07234192 C150.08131795 159.47934599 149.77104574 161.88587018 149.45620728 164.29179382 C148.47369866 171.9324572 147.76954016 179.56410031 147.25 187.25 C165.63457333 172.55644715 170.09821413 154.87525595 172.77001953 132.68115234 C174.09783 123.18926613 176.70711556 113.48160911 183.25 106.25 C186.94329658 103.78780228 189.9649344 103.45801317 194.25 104.25 C197.25 106.25 197.25 106.25 199.25 109.25 C201.92954547 125.92272735 188.17420472 146.28058238 179.22827148 159.4050293 C177.25891925 163.11912834 177.12568495 166.98116717 177.15234375 171.11328125 C177.15717773 172.44262695 177.15717773 172.44262695 177.16210938 173.79882812 C177.17048828 174.71083984 177.17886719 175.62285156 177.1875 176.5625 C177.19426758 177.95952148 177.19426758 177.95952148 177.20117188 179.38476562 C177.21290766 181.67324373 177.22932637 183.96158808 177.25 186.25 C179.54781554 186.36635105 179.54781554 186.36635105 182.25 185.25 C187.3136903 180.11988135 190.54297906 173.37393215 193.875 167.0625 C194.93051669 165.09540071 195.9878541 163.12927746 197.046875 161.1640625 C197.84641602 159.6795459 197.84641602 159.6795459 198.66210938 158.16503906 C201.5523383 152.85917601 204.57139481 147.6280723 207.5925293 142.39599609 C210.43277544 137.46574003 213.2145117 132.50962643 215.94140625 127.515625 C216.87654053 125.81273315 216.87654053 125.81273315 217.83056641 124.07543945 C219.04342346 121.8626052 220.24791492 119.64515943 221.44287109 117.42260742 C221.99668457 116.41560791 222.55049805 115.4086084 223.12109375 114.37109375 C223.60505615 113.4783374 224.08901855 112.58558105 224.58764648 111.66577148 C226.88360771 108.32922628 229.63118619 106.0594069 233.25 104.25 C240.16004367 103.79934498 240.16004367 103.79934498 243.25 106.25 C245.90948538 111.37561175 246.57807812 114.7096776 246.05859375 120.5703125 C246.00158798 121.25658722 245.94458221 121.94286194 245.885849 122.64993286 C245.69535023 124.8525603 245.47613863 127.0507642 245.25 129.25 C245.14235321 130.34169495 245.14235321 130.34169495 245.03253174 131.45544434 C244.58764624 135.92903579 244.09585392 140.39592999 243.57543945 144.86132812 C243.31030899 147.14386264 243.05421633 149.4272946 242.79882812 151.7109375 C241.93545292 159.29399855 240.96445871 166.80271246 239.25 174.25 C240.48105469 174.47558594 241.71210938 174.70117188 242.98046875 174.93359375 C249.15095313 176.30494675 254.78072731 178.80623802 260.5625 181.3125 C262.68252682 182.22254162 264.80357979 183.13019745 266.92578125 184.03515625 C267.85302002 184.43613525 268.78025879 184.83711426 269.7355957 185.25024414 C278.9051107 188.89614801 288.33981914 188.06864894 297.25 184.25 C300.25 184.0625 300.25 184.0625 302.25 184.25 C302.58 186.23 302.91 188.21 303.25 190.25 C295.51020525 196.51554813 285.88595997 197.23280014 276.25 196.25 C266.66218083 194.29806242 257.67043698 190.02438392 248.73046875 186.15234375 C244.61655528 184.37902817 240.45662606 182.78971148 236.25 181.25 C236.1571875 182.301875 236.1571875 182.301875 236.0625 183.375 C234.66083194 188.33474853 231.66624878 191.26191946 227.5625 194.125 C223.04289104 195.65996153 218.97425096 195.96770757 214.25 195.25 C210.79139101 193.23247809 208.33695753 191.16304711 207.25 187.25 C207.32662201 182.42281327 207.46269759 180.26224596 210.4375 176.4375 C215.46223306 172.52937429 219.13078586 171.13377794 225.46484375 170.671875 C226.54757568 170.5903418 227.63030762 170.50880859 228.74584961 170.42480469 C229.57221924 170.36711914 230.39858887 170.30943359 231.25 170.25 C234.23234813 150.42050663 234.23234813 150.42050663 236.5 130.5 C236.57976074 129.67540283 236.65952148 128.85080566 236.74169922 128.0012207 C237.1838393 123.06467054 237.31789095 118.20603961 237.25 113.25 C233.21664035 114.74223347 232.00100231 116.89448888 230 120.61328125 C229.39784668 121.71704102 228.79569336 122.82080078 228.17529297 123.95800781 C227.53351281 125.15949675 226.89174887 126.36099435 226.25 127.5625 C225.57960967 128.7972681 224.90788318 130.03131164 224.23486328 131.26464844 C223.21299958 133.1373461 222.19180952 135.01036393 221.17459106 136.8855896 C218.23536189 142.3019308 215.20099123 147.66014157 212.125 153 C208.97365068 158.47900186 205.84164578 163.96700607 202.7578125 169.484375 C202.17273926 170.52883789 201.58766602 171.57330078 200.98486328 172.64941406 C199.85713126 174.66492161 198.73290905 176.68239842 197.61279297 178.70214844 C190.0709634 192.16104807 190.0709634 192.16104807 182.25 195.25 C177.88246889 195.93961018 175.8786822 195.57027206 171.9375 193.5625 C167.51346938 189.52778408 167.72639939 182.86001355 167.25 177.25 C166.60933594 178.21421875 165.96867187 179.1784375 165.30859375 180.171875 C164.43565242 181.44843437 163.56191162 182.7244473 162.6875 184 C162.26919922 184.63421875 161.85089844 185.2684375 161.41992188 185.921875 C158.24027895 190.51203622 155.34976291 192.91750475 150.25 195.25 C146.5625 195.3125 146.5625 195.3125 143.25 194.25 C140.54615842 191.57545772 139.35334575 189.96604044 138.80554199 186.17053223 C139.04368572 177.98327439 139.68517067 169.96038903 140.78125 161.84375 C140.93662231 160.63481079 141.09199463 159.42587158 141.2520752 158.18029785 C141.74307188 154.36906401 142.24577251 150.55950394 142.75 146.75 C143.25242413 142.91173017 143.75227357 139.0731592 144.2479248 135.23400879 C144.55518716 132.85836173 144.86660184 130.48324696 145.18273926 128.10876465 C145.32288452 127.03324341 145.46302979 125.95772217 145.60742188 124.84960938 C145.73177612 123.91032593 145.85613037 122.97104248 145.98425293 122.0032959 C146.26741173 119.06960428 146.29463915 116.19550559 146.25 113.25 C141.71808974 113.73283063 139.79854601 115.23359874 136.66796875 118.4765625 C135.81783203 119.34410156 134.96769531 120.21164063 134.09179688 121.10546875 C133.21587891 122.01941406 132.33996094 122.93335937 131.4375 123.875 C126.09732853 129.37844293 120.79041579 134.79392993 114.95874023 139.77929688 C109.06610676 144.85105342 103.79256063 150.613081 98.7578125 156.5234375 C97.25 158.25 97.25 158.25 95.67675781 159.54272461 C93.74257725 161.85718811 93.89527237 163.30453271 93.9140625 166.29296875 C93.90117187 167.28490234 93.88828125 168.27683594 93.875 169.29882812 C93.875 171.37175951 93.88266422 173.44470675 93.8984375 175.51757812 C93.79222352 182.37280558 92.74207723 186.95332116 88.25 192.25 C84.74401203 195.28220581 81.67768385 195.72577178 77.1796875 195.5390625 C74.29238119 195.10655103 72.48927491 194.09410875 70.25 192.25 C67.70905289 187.93946472 67.16653936 184.13678109 68.25 179.25 C70.93665694 174.36128206 74.32681651 170.008165 78.43955898 166.24831581 C83.11180128 161.73813631 85.81209382 158.40326801 86.33229065 151.80844116 C86.35813012 149.35460623 86.33500563 146.89993236 86.27172852 144.44677734 C86.26918445 143.08571543 86.27062539 141.72464121 86.27571106 140.36358643 C86.27827542 136.69790102 86.22567031 133.03490937 86.16254544 129.36984587 C86.10597421 125.52898335 86.10097288 121.68804714 86.09031677 117.84683228 C86.06243298 110.58630145 85.98870303 103.327002 85.89817137 96.06701148 C85.7972922 87.79625309 85.74802033 79.52543338 85.70291245 71.25421214 C85.60904239 54.25209788 85.45091836 37.25117947 85.25 20.25 C83.19507047 19.60669842 81.13922625 18.96631824 79.08300781 18.32714844 C77.93825989 17.97021912 76.79351196 17.61328979 75.61407471 17.24554443 C66.28221222 14.48392807 57.26410129 13.92977062 47.57226562 13.98925781 C45.51662205 13.99991383 43.46186611 13.98933641 41.40625 13.9765625 C33.18591969 13.97115988 25.36027194 14.63336856 17.25292969 16.01660156 C14.25 16.25 14.25 16.25 11.25 14.25 C11.0625 11.625 11.0625 11.625 11.25 9.25 C0.47411382 7.76367087 -9.42846956 8.03564637 -18.75 14.25 C-19.0548957 16.68811885 -19.16145727 18.87557565 -19.14199829 21.317276 C-19.14793955 22.05331871 -19.15388081 22.78936142 -19.16000211 23.54770845 C-19.17638016 26.02683008 -19.17133309 28.50545467 -19.16650391 30.98461914 C-19.17387893 32.75667396 -19.18258237 34.52872369 -19.19252014 36.30076599 C-19.21591043 41.12290126 -19.22099636 45.94490796 -19.22317934 50.76709294 C-19.22882506 55.80354873 -19.25208749 60.83991977 -19.27377319 65.87632751 C-19.31234994 75.41966141 -19.33653558 84.96297118 -19.35489786 94.50636333 C-19.38827105 111.60806843 -19.44590918 128.70970138 -19.50888956 145.81132025 C-19.53044292 151.81894143 -19.54567737 157.82653746 -19.55572915 163.83418858 C-19.56272415 167.56320893 -19.57360099 171.29221123 -19.58537102 175.02121925 C-19.58994688 176.75752137 -19.59278063 178.49382902 -19.59379387 180.23013687 C-19.59535462 182.59003144 -19.60290429 184.94983182 -19.61196899 187.30970764 C-19.61090074 188.00580125 -19.60983249 188.70189487 -19.60873187 189.41908222 C-19.63596421 194.13596421 -19.63596421 194.13596421 -20.75 195.25 C-23.25 195.375 -23.25 195.375 -25.75 195.25 C-27.46987206 193.53012794 -26.86974788 191.34122971 -26.87442017 189.04867554 C-26.87082489 188.30421173 -26.86722961 187.55974792 -26.86352539 186.79272461 C-26.86367142 186.01229294 -26.86381744 185.23186127 -26.8639679 184.42778015 C-26.86326858 181.8359402 -26.85547536 179.24417122 -26.84765625 176.65234375 C-26.84579213 174.8601536 -26.8443682 173.06796294 -26.84336853 171.27577209 C-26.83954284 166.54929203 -26.82971212 161.82284248 -26.81866455 157.09637451 C-26.80845153 152.2771445 -26.80387115 147.45790958 -26.79882812 142.63867188 C-26.78808989 133.17576781 -26.77101286 123.71288644 -26.75 114.25 C-28.65471069 114.00650314 -28.65471069 114.00650314 -30.59790039 113.75808716 C-31.3121669 113.66677584 -32.02643341 113.57546452 -32.76234436 113.48138618 C-34.91323868 113.23099712 -37.02229825 113.12088058 -39.1875 113.1171875 C-40.31285156 113.11525391 -40.31285156 113.11525391 -41.4609375 113.11328125 C-42.21632813 113.11714844 -42.97171875 113.12101562 -43.75 113.125 C-44.50539063 113.12113281 -45.26078125 113.11726563 -46.0390625 113.11328125 C-47.16441406 113.11521484 -47.16441406 113.11521484 -48.3125 113.1171875 C-48.97378906 113.11831543 -49.63507813 113.11944336 -50.31640625 113.12060547 C-53.82231377 113.30701508 -57.26950265 113.79028583 -60.75 114.25 C-60.74000725 115.42271706 -60.74000725 115.42271706 -60.72981262 116.61912537 C-60.66948296 124.0185236 -60.62391525 131.41780109 -60.59456348 138.81738186 C-60.57896571 142.62079372 -60.55783652 146.42400085 -60.52368164 150.22729492 C-60.49087615 153.90370229 -60.4731028 157.57991383 -60.46536827 161.25645638 C-60.45986249 162.65296571 -60.44911186 164.04946539 -60.43280983 165.44589043 C-60.24027649 182.63552091 -60.24027649 182.63552091 -65.36328125 189.37109375 C-72.50521761 194.90404215 -78.7899765 196.03953478 -87.75 195.25 C-91.49469428 194.47887819 -95.10304935 193.38999448 -98.75 192.25 C-105.03425483 190.41888334 -111.18643861 188.64708379 -117.75 188.25 C-118.68070313 188.18554688 -119.61140625 188.12109375 -120.5703125 188.0546875 C-131.94925675 187.63531609 -142.62081842 190.08294639 -152.75 195.25 C-155.5625 195.5 -155.5625 195.5 -157.75 195.25 C-158.75 194.25 -158.75 194.25 -159.3125 192 C-158.65603235 188.79060259 -158.23089158 188.48217587 -155.625 186.6875 C-140.0048461 178.00050213 -119.62886571 177.22183555 -102.57128906 181.83984375 C-99.63110623 182.7142668 -96.70590641 183.63269324 -93.78051758 184.55517578 C-86.94371155 186.64227619 -80.51711231 187.71071702 -73.6875 185.0625 C-70.58510843 182.16026273 -69.83196205 179.28044679 -69.4984436 175.08737183 C-69.49718475 173.8995108 -69.4959259 172.71164978 -69.49462891 171.48779297 C-69.49100845 170.82863892 -69.487388 170.16948486 -69.48365784 169.49035645 C-69.47679213 168.06682591 -69.47425308 166.6432692 -69.47560501 165.21972275 C-69.47657342 162.96678701 -69.46359368 160.71432419 -69.44662476 158.4614563 C-69.4004314 152.05913875 -69.37572754 145.65687314 -69.36914062 139.25439453 C-69.36413315 135.33214531 -69.33993088 131.41039572 -69.30381393 127.48831558 C-69.2940053 125.99480307 -69.29168983 124.50122195 -69.29698563 123.00768661 C-69.30403709 120.92238393 -69.28682008 118.83857895 -69.26416016 116.75341797 C-69.26131012 115.56714813 -69.25846008 114.3808783 -69.25552368 113.15866089 C-68.75 110.25 -68.75 110.25 -66.86898804 108.40286255 C-59.83866023 104.57792277 -51.92075359 103.97480046 -44.0625 103.9375 C-43.03056519 103.92940308 -43.03056519 103.92940308 -41.9777832 103.92114258 C-38.18363217 103.97305541 -34.68939112 104.41227536 -30.98901367 105.26879883 C-30.19138107 105.45170975 -29.39374847 105.63462067 -28.57194519 105.82307434 C-27.97070328 105.96395981 -27.36946136 106.10484528 -26.75 106.25 C-26.75888245 105.05618713 -26.76776489 103.86237427 -26.7769165 102.63238525 C-26.85794739 91.39054952 -26.91793907 80.14877292 -26.95724869 68.90671158 C-26.97813748 63.12681166 -27.00647912 57.3471472 -27.05175781 51.56738281 C-27.09516886 45.99122549 -27.11912737 40.41529487 -27.12950897 34.83898163 C-27.13690882 32.70986104 -27.15135875 30.58075309 -27.17292023 28.45172882 C-27.20189078 25.47307875 -27.20595861 22.49536949 -27.20410156 19.51660156 C-27.21848267 18.63331177 -27.23286377 17.75002197 -27.24768066 16.83996582 C-27.2072249 10.85651433 -27.2072249 10.85651433 -24.8739624 7.76141357 C-22.5685599 6.12088706 -20.29850063 4.79401631 -17.75 3.5625 C-16.904375 3.14613281 -16.05875 2.72976562 -15.1875 2.30078125 C-10.11824479 0.11547732 -5.4454813 0.03559138 0 0 Z M188.25 112.25 C184.6112378 118.31957465 182.48383359 124.40523627 180.875 131.25 C180.69549805 132.004021 180.51599609 132.75804199 180.33105469 133.53491211 C179.26804125 137.46817285 179.26804125 137.46817285 180.25 141.25 C181.71413471 138.54466468 183.17140832 135.83599307 184.625 133.125 C185.0375 132.36445313 185.45 131.60390625 185.875 130.8203125 C189.18122491 124.63447234 191.59120308 119.41526477 191.25 112.25 C190.26 112.25 189.27 112.25 188.25 112.25 Z M83.4375 171.97265625 C79.0343641 176.68243911 76.25 179.67801863 76.25 186.25 C78.59533951 187.01956136 78.59533951 187.01956136 81.25 187.25 C84.21974855 185.27016763 85.29888795 182.61547342 86.25 179.25 C86.40673908 176.24162091 86.36800861 173.25921963 86.25 170.25 C84.95405055 170.13518106 84.95405055 170.13518106 83.4375 171.97265625 Z M215.25 183.25 C215.58 184.57 215.91 185.89 216.25 187.25 C220.88109503 187.57309965 223.5901383 187.19822192 227.25 184.25 C228.59689915 181.67900598 228.59689915 181.67900598 229.25 179.25 C223.27019678 178.78099583 219.67608641 178.6811366 215.25 183.25 Z " fill="#ffffff" transform="translate(234.75,-0.25)"/>
<path d="M0 0 C5.34947455 4.8739657 7.55453313 11.80228121 7.94189453 18.95019531 C7.94302246 19.75553711 7.94415039 20.56087891 7.9453125 21.390625 C7.94724609 22.71320312 7.94724609 22.71320312 7.94921875 24.0625 C7.94535156 24.97 7.94148438 25.8775 7.9375 26.8125 C7.94330078 28.19695312 7.94330078 28.19695312 7.94921875 29.609375 C7.94792969 30.4859375 7.94664062 31.3625 7.9453125 32.265625 C7.94418457 33.06645508 7.94305664 33.86728516 7.94189453 34.69238281 C7.8125 36.5625 7.8125 36.5625 6.8125 37.5625 C4.81285018 37.65008003 2.8101389 37.66946576 0.80859375 37.66015625 C-0.40634766 37.65693359 -1.62128906 37.65371094 -2.87304688 37.65039062 C-4.15244141 37.64201172 -5.43183594 37.63363281 -6.75 37.625 C-8.03326172 37.62048828 -9.31652344 37.61597656 -10.63867188 37.61132812 C-13.82166022 37.59949545 -17.00455762 37.58301068 -20.1875 37.5625 C-22.94039369 27.48878482 -21.83681508 15.23706721 -18.1875 5.5625 C-13.81667473 -1.48721818 -7.78450141 -3.5106575 0 0 Z M-9.1875 6.5625 C-13.1962617 11.75904294 -13.31427861 17.01141729 -13.25 23.375 C-13.229375 25.416875 -13.20875 27.45875 -13.1875 29.5625 C-8.8975 29.5625 -4.6075 29.5625 -0.1875 29.5625 C0.17454939 18.68194518 0.17454939 18.68194518 -3.1875 8.5625 C-3.8475 7.9025 -4.5075 7.2425 -5.1875 6.5625 C-6.5075 6.5625 -7.8275 6.5625 -9.1875 6.5625 Z " fill="#ffffff" transform="translate(248.1875,38.4375)"/>
<path d="M0 0 C5.4155809 3.57632701 7.22812517 6.60375074 8.625 12.75 C9.09547055 16.82741147 9.29345039 20.90032549 9 25 C8 26 8 26 5.77514648 26.11352539 C4.81680908 26.10828857 3.85847168 26.10305176 2.87109375 26.09765625 C1.31938477 26.09282227 1.31938477 26.09282227 -0.26367188 26.08789062 C-1.35228516 26.07951172 -2.44089844 26.07113281 -3.5625 26.0625 C-5.2012207 26.05573242 -5.2012207 26.05573242 -6.87304688 26.04882812 C-9.58208495 26.03699826 -12.29101599 26.02051543 -15 26 C-15.67924528 8.08805031 -15.67924528 8.08805031 -9.75 1.5 C-6.12642726 -0.47649422 -4.07686971 -0.64371627 0 0 Z M-5 8 C-7.32590854 11.63423209 -7.16265833 14.77088331 -7 19 C-4.36 19 -1.72 19 1 19 C0.87625 17.741875 0.7525 16.48375 0.625 15.1875 C0.55539063 14.47980469 0.48578125 13.77210938 0.4140625 13.04296875 C0.07334609 10.70011858 0.07334609 10.70011858 -2 8 C-2.99 8 -3.98 8 -5 8 Z " fill="#ffffff" transform="translate(193,119)"/>

<!-- Text wie beim Vereinslogo: oben leichter, unten sehr fett -->
<text x="307" y="252" text-anchor="middle"
      fill="#ffffff"
      font-family="Montserrat, Poppins, 'Avenir Next', 'Segoe UI', Arial, sans-serif"
      font-size="30"
      font-weight="500"
      letter-spacing="0.2">
  Digitale Geschichtstour
</text>

<text x="307" y="318" text-anchor="middle"
      fill="#ffffff"
      font-family="Montserrat, Poppins, 'Avenir Next', 'Segoe UI', Arial, sans-serif"
      font-size="60"
      font-weight="800"
      letter-spacing="3">
  WINDECK
</text>
</svg>
